P2
36 36
255
128 128 128 128 128 128 128 128 128 128 128 128 128 128 128 128 128 128 128 128 128 128 128 128 128 128 128 128 128 128 128 128 128 128 128 128
128 128 128 128 128 128 128 128 128 128 128 128 128 128 128 128 128 128 128 128 128 128 128 128 128 128 128 128 128 128 128 128 128 128 128 128
128 128 128 128 128 128 128 128 128 128 128 128 128 128 128 128 128 128 128 128 128 128 128 128 128 128 128 128 128 128 128 128 128 128 128 128
128 128 128 128 128 128 128 128 128 128 128 128 128 128 128 128 128 128 128 128 128 128 128 128 128 128 128 128 128 128 128 128 128 128 128 128
128 128 128 128 128 128 128 128 128 128 128 128 128 128 128 128 128 128 128 128 128 128 128 128 128 128 128 128 128 128 128 128 128 128 128 128
128 128 128 128 128 128 128 128 128 128 128 128 128 128 128 128 128 153 128 128 128 128 128 128 128 128 128 128 128 153 153 128 128 128 128 128
128 128 128 128 128 128 128 128 128 128 128 128 128 128 128 128 128 128 128 128 128 128 128 128 128 128 128 128 128 153 153 128 128 128 128 128
128 128 128 128 128 128 128 128 128 128 128 128 128 128 128 128 128 128 128 128 128 128 128 128 128 128 128 128 128 128 128 128 128 128 128 128
128 128 128 128 128 128 128 128 128 128 128 128 128 128 128 128 128 128 128 128 128 128 128 128 128 128 128 128 128 128 128 128 128 128 128 128
128 128 128 128 128 128 128 128 128 128 128 128 128 128 128 128 128 128 128 128 128 128 128 128 128 128 128 128 128 128 128 128 128 128 128 128
128 128 128 128 128 128 128 128 128 128 128 128 128 128 128 128 128 128 128 128 128 128 128 128 128 128 128 128 128 128 128 128 128 128 128 128
128 128 128 128 128 128 128 128 128 128 128 128 128 128 128 128 128 128 128 128 128 128 128 128 128 128 128 128 128 128 128 128 128 128 128 128
128 128 128 128 128 128 128 128 128 128 128 128 153 153 103 103 153 153 103 103 153 153 103 103 153 103 153 103 153 103 153 103 153 103 153 103
128 128 128 128 128 128 128 128 128 128 128 128 153 153 103 103 153 153 103 103 153 153 103 103 153 103 153 103 153 103 153 103 153 103 153 103
128 128 128 128 128 128 128 128 128 128 128 128 103 103 153 153 103 103 153 153 103 103 153 153 103 153 103 153 103 153 103 153 103 153 103 153
128 128 128 128 128 128 128 128 128 128 128 128 103 103 153 153 103 103 153 153 103 103 153 153 103 153 103 153 103 153 103 153 103 153 103 153
128 128 128 128 128 128 128 128 128 128 128 128 153 153 103 103 153 153 103 103 153 153 103 103 153 103 153 103 153 103 153 103 153 103 153 103
128 128 128 128 128 103 128 128 128 128 128 128 153 153 103 103 153 153 103 103 153 153 103 103 153 103 153 103 153 103 153 103 153 103 153 103
128 128 128 128 128 128 128 128 128 128 128 128 103 103 153 153 103 103 153 153 103 103 153 153 103 153 103 153 103 153 103 153 103 153 103 153
128 128 128 128 128 128 128 128 128 128 128 128 103 103 153 153 103 103 153 153 103 103 153 153 103 153 103 153 103 153 103 153 103 153 103 153
128 128 128 128 128 128 128 128 128 128 128 128 153 153 103 103 153 153 103 103 153 153 103 103 153 103 153 103 153 103 153 103 153 103 153 103
128 128 128 128 128 128 128 128 128 128 128 128 153 153 103 103 153 153 103 103 153 153 103 103 153 103 153 103 153 103 153 103 153 103 153 103
128 128 128 128 128 128 128 128 128 128 128 128 103 103 153 153 103 103 153 153 103 103 153 153 103 153 103 153 103 153 103 153 103 153 103 153
128 128 128 128 128 128 128 128 128 128 128 128 103 103 153 153 103 103 153 153 103 103 153 153 103 153 103 153 103 153 103 153 103 153 103 153
128 128 128 128 128 128 128 128 128 128 128 128 153 153 103 103 153 153 103 103 153 153 103 103 153 103 153 103 153 103 153 103 153 103 153 103
128 128 128 128 128 128 128 128 128 128 128 128 103 103 153 153 103 103 153 153 103 103 153 153 103 153 103 153 103 153 103 153 103 153 103 153
128 128 128 128 128 128 128 128 128 128 128 128 153 153 103 103 153 153 103 103 153 153 103 103 153 103 153 103 153 103 153 103 153 103 153 103
128 128 128 128 128 128 128 128 128 128 128 128 103 103 153 153 103 103 153 153 103 103 153 153 103 153 103 153 103 153 103 153 103 153 103 153
128 128 128 128 128 128 128 128 128 128 128 128 153 153 103 103 153 153 103 103 153 153 103 103 153 103 153 103 153 103 153 103 153 103 153 103
128 128 128 128 128 103 103 128 128 128 128 128 103 103 153 153 103 103 153 153 103 103 153 153 103 153 103 153 103 153 103 153 103 153 103 153
128 128 128 128 128 103 103 128 128 128 128 128 153 153 103 103 153 153 103 103 153 153 103 103 153 103 153 103 153 103 153 103 153 103 153 103
128 128 128 128 128 128 128 128 128 128 128 128 103 103 153 153 103 103 153 153 103 103 153 153 103 153 103 153 103 153 103 153 103 153 103 153
128 128 128 128 128 128 128 128 128 128 128 128 153 153 103 103 153 153 103 103 153 153 103 103 153 103 153 103 153 103 153 103 153 103 153 103
128 128 128 128 128 128 128 128 128 128 128 128 103 103 153 153 103 103 153 153 103 103 153 153 103 153 103 153 103 153 103 153 103 153 103 153
128 128 128 128 128 128 128 128 128 128 128 128 153 153 103 103 153 153 103 103 153 153 103 103 153 103 153 103 153 103 153 103 153 103 153 103
128 128 128 128 128 128 128 128 128 128 128 128 103 103 153 153 103 103 153 153 103 103 153 153 103 153 103 153 103 153 103 153 103 153 103 153
